<?xml version="1.0" standalone="no"?>
<!DOCTYPE svg PUBLIC "-//W3C//DTD SVG 20010904//EN"
 "http://www.w3.org/TR/2001/REC-SVG-20010904/DTD/svg10.dtd">
<svg version="1.0" xmlns="http://www.w3.org/2000/svg"
 width="300.000000pt" height="133.000000pt" viewBox="0 0 300.000000 133.000000"
 preserveAspectRatio="xMidYMid meet">
<metadata>
Created by potrace 1.10, written by Peter Selinger 2001-2011
</metadata>
<g transform="translate(0.000000,133.000000) scale(0.100000,-0.100000)"
fill="#000000" stroke="none">
<path d="M1351 1077 c-77 -38 -143 -116 -205 -240 -67 -133 -85 -198 -93 -332
-6 -98 -5 -101 21 -132 47 -55 172 -82 382 -83 114 0 125 2 175 28 74 38 111
93 117 171 5 71 -10 121 -51 167 -93 107 -252 105 -356 -4 l-33 -36 4 102 c2
60 9 107 16 114 7 7 34 11 65 9 67 -3 104 11 119 46 7 16 18 36 26 45 28 34
-69 168 -121 168 -12 0 -42 -10 -66 -23z m113 -30 c64 -69 70 -108 19 -128
-34 -13 -76 3 -71 28 5 26 28 28 28 1 1 -20 2 -21 11 -5 5 9 20 17 32 17 18 1
16 4 -11 15 -27 12 -32 19 -27 35 10 33 -8 22 -34 -20 -14 -21 -28 -37 -33
-34 -16 10 -8 -10 14 -33 14 -15 33 -23 55 -23 21 0 33 -5 33 -14 0 -17 -31
-26 -87 -26 -32 0 -46 5 -57 22 l-16 22 0 -24 c0 -52 -14 -57 -75 -27 -37 18
-54 31 -49 40 50 86 167 187 217 187 11 0 34 -15 51 -33z m-221 -215 l49 -27
2 -90 c1 -49 -1 -105 -5 -122 -4 -18 -5 -33 -4 -33 14 0 35 14 35 24 0 37 91
108 168 131 l22 6 0 -205 0 -206 -82 0 c-161 1 -287 27 -330 70 -24 24 -28 36
-28 83 0 91 28 225 67 313 20 46 41 84 47 84 6 0 33 -13 59 -28z m382 -144
c150 -78 133 -295 -27 -362 -71 -30 -68 -39 -68 188 l0 204 33 -7 c17 -5 46
-15 62 -23z"/>
<path d="M2522 833 c-67 -33 -132 -131 -160 -242 l-19 -72 -16 43 c-17 41 -17
42 7 67 64 69 85 151 48 184 -23 21 -105 22 -177 4 l-49 -13 -18 -105 c-10
-57 -27 -153 -38 -213 -11 -60 -18 -111 -16 -113 3 -3 30 2 60 11 55 16 56 17
57 54 1 75 13 76 38 2 27 -78 19 -77 92 -12 l26 23 13 -31 c7 -17 22 -37 34
-45 29 -21 95 -18 133 4 34 21 108 109 118 141 6 19 8 19 31 3 21 -14 34 -14
82 -6 64 12 76 8 47 -14 -13 -9 -33 -13 -58 -10 -39 5 -39 5 -64 -51 -23 -53
-24 -57 -7 -69 45 -33 131 -4 195 64 68 71 88 143 50 177 -15 14 -33 17 -75
14 -31 -1 -56 0 -56 5 0 4 0 11 0 16 0 15 33 23 41 9 6 -9 16 -9 47 1 63 21
67 26 66 81 -1 106 -71 118 -166 31 -30 -27 -60 -61 -67 -75 -20 -36 -26 -33
-28 19 -5 110 -81 163 -171 118z m99 -13 c43 -24 65 -110 48 -191 -21 -98 -87
-202 -150 -235 -116 -59 -184 62 -128 228 49 145 156 237 230 198z m-253 -22
c32 -32 -7 -128 -68 -171 l-21 -15 35 -70 35 -69 -33 -32 c-17 -17 -35 -31
-38 -31 -3 0 -18 34 -34 75 -16 41 -33 74 -39 72 -5 -2 -14 -34 -20 -72 -9
-62 -12 -69 -38 -78 -16 -5 -31 -7 -34 -4 -3 3 10 92 28 196 l32 191 41 9 c60
13 140 13 154 -1z m550 0 c7 -7 12 -32 12 -55 0 -40 -3 -45 -32 -57 -27 -12
-34 -12 -46 0 -15 15 -25 12 -59 -19 -26 -23 -30 -52 -8 -60 8 -4 37 -3 65 0
77 9 99 -21 64 -90 -45 -88 -148 -154 -208 -131 -13 5 -12 11 5 48 20 39 23
41 58 38 30 -3 44 2 67 22 28 25 28 27 11 40 -13 10 -31 12 -55 8 -103 -18
-126 -1 -98 71 29 76 151 196 202 197 5 0 15 -5 22 -12z"/>
<path d="M2513 678 c-33 -37 -64 -106 -66 -150 -4 -100 106 -93 149 9 16 38
18 116 4 144 -15 26 -61 25 -87 -3z m75 -51 c6 -88 -49 -164 -103 -143 -18 6
-20 61 -4 103 19 50 59 94 82 91 19 -3 22 -11 25 -51z"/>
<path d="M2232 703 c-15 -30 -24 -93 -13 -93 6 0 28 17 51 39 27 26 38 44 34
55 -8 22 -61 21 -72 -1z m48 -11 c0 -5 -9 -17 -20 -27 -19 -18 -20 -17 -20 2
0 11 3 23 7 26 9 10 33 9 33 -1z"/>
<path d="M657 825 c-49 -7 -92 -17 -96 -21 -4 -5 -22 -97 -40 -204 -18 -107
-35 -203 -38 -214 -6 -20 -6 -20 88 5 l36 9 9 77 9 78 58 9 57 8 0 38 c0 21 3
46 7 56 5 13 3 16 -10 11 -8 -3 -32 -9 -51 -13 -31 -5 -36 -4 -36 13 0 16 10
21 58 29 l57 9 5 63 c4 51 2 62 -10 61 -8 -1 -55 -7 -103 -14z m93 -49 l0 -44
-55 -7 c-56 -7 -56 -6 -69 -68 -6 -24 -4 -28 11 -23 10 3 36 8 57 12 35 6 38
5 33 -10 -4 -10 -7 -24 -7 -31 0 -9 -17 -16 -43 -20 -24 -4 -50 -11 -57 -15
-8 -5 -19 -41 -25 -81 -10 -71 -12 -74 -43 -83 -18 -5 -35 -7 -37 -4 -5 5 53
380 60 386 2 2 41 10 87 17 46 7 84 13 86 14 1 0 2 -19 2 -43z"/>
<path d="M886 824 c-49 -8 -91 -15 -92 -17 -6 -6 -76 -429 -71 -433 2 -3 29 1
58 9 53 13 54 14 62 58 23 122 17 113 77 124 l55 10 3 52 3 51 -38 -9 c-55
-12 -62 -11 -56 10 4 15 17 21 58 26 51 7 53 8 59 44 3 20 6 48 6 64 0 31 4
31 -124 11z m104 -18 c0 -7 -3 -27 -6 -44 -6 -29 -10 -31 -60 -38 -33 -4 -54
-11 -54 -19 0 -7 -3 -27 -7 -45 -5 -28 -4 -32 10 -27 8 3 32 9 51 13 35 6 36
5 36 -24 0 -28 -3 -30 -48 -37 -26 -3 -53 -9 -59 -13 -6 -4 -16 -41 -22 -82
-7 -41 -13 -75 -14 -76 -1 -1 -18 -5 -38 -9 l-35 -7 30 190 c17 105 34 193 37
197 6 5 59 15 172 34 4 0 7 -5 7 -13z"/>
<path d="M136 814 c-60 -8 -111 -16 -113 -18 -3 -2 -1 -32 3 -65 l7 -62 30 7
c27 6 29 4 24 -17 -14 -57 -49 -281 -44 -285 3 -3 29 2 59 11 l54 15 17 113
c26 170 32 187 67 187 17 0 30 -5 30 -11 0 -6 -12 -79 -26 -161 -15 -82 -24
-151 -22 -154 3 -2 52 15 109 40 57 24 114 47 125 50 17 5 23 17 28 59 6 45
44 219 62 283 6 21 5 21 -52 10 -34 -7 -60 -18 -63 -26 -2 -8 -14 -62 -25
-120 -16 -78 -25 -106 -37 -108 -14 -3 -13 10 8 105 13 59 26 120 30 135 l5
26 -43 -9 c-24 -5 -52 -12 -61 -15 -12 -4 -18 0 -18 10 0 19 -6 19 -154 0z
m134 -49 c0 -45 0 -45 -35 -45 -46 0 -52 -13 -78 -175 l-21 -134 -34 -6 c-19
-3 -35 -5 -37 -3 -2 2 8 61 21 133 31 170 31 168 -5 163 -28 -4 -29 -2 -34 36
-2 23 -3 42 -2 44 2 1 49 9 106 16 57 7 107 14 112 15 4 0 7 -19 7 -44z m95
-57 c-12 -51 -25 -114 -29 -140 l-7 -47 39 17 40 17 18 107 c10 60 20 112 23
116 9 14 71 23 71 11 0 -6 -9 -47 -21 -92 -11 -45 -26 -110 -32 -145 l-12 -63
-104 -44 c-58 -25 -106 -44 -107 -42 -2 2 37 230 57 334 11 54 9 53 75 62 7 0
3 -31 -11 -91z"/>
<path d="M1932 816 c-29 -8 -54 -15 -57 -17 -2 -3 -15 -81 -29 -174 -14 -94
-28 -190 -32 -214 l-7 -44 60 5 c126 12 233 100 233 193 0 28 -5 38 -25 47
l-25 11 24 26 c28 29 56 90 56 121 0 11 -9 29 -20 40 -24 24 -94 26 -178 6z
m163 -19 c31 -23 12 -81 -47 -143 l-50 -53 39 -3 c36 -3 38 -5 41 -40 3 -30
-3 -43 -32 -75 -42 -47 -107 -81 -171 -90 l-48 -6 7 28 c4 16 18 103 32 194
14 91 28 169 32 173 25 23 169 34 197 15z"/>
<path d="M1967 713 c-2 -5 -7 -21 -11 -38 -4 -16 -9 -38 -12 -47 -8 -28 8 -21
49 18 46 45 49 74 8 74 -17 0 -32 -3 -34 -7z"/>
<path d="M1949 563 c-9 -2 -19 -18 -23 -35 -11 -57 -10 -59 32 -42 91 37 84
102 -9 77z m51 -23 c0 -12 -38 -32 -52 -28 -14 5 19 38 38 38 8 0 14 -4 14
-10z"/>
<path d="M677 202 c-14 -21 -21 -122 -9 -122 6 0 12 9 14 20 4 27 22 27 26 0
5 -33 22 -23 22 14 0 18 3 48 6 65 4 20 3 31 -5 31 -6 0 -11 -7 -11 -16 0 -8
-6 -25 -12 -37 -12 -21 -13 -20 -18 18 -3 26 -8 36 -13 27z"/>
<path d="M904 202 c-15 -9 -54 -87 -54 -107 0 -19 16 -20 24 0 3 8 12 15 21
15 8 0 15 -7 15 -15 0 -8 5 -15 10 -15 12 0 13 99 2 117 -4 7 -12 9 -18 5z"/>
<path d="M998 165 c-13 -47 -28 -43 -28 8 0 15 -4 27 -10 27 -11 0 -12 -52 -1
-90 11 -40 33 -29 52 25 21 59 23 75 9 75 -6 0 -15 -20 -22 -45z"/>
<path d="M1113 198 c-5 -7 -13 -21 -16 -30 -10 -29 -30 -22 -23 8 5 19 3 25
-6 22 -17 -6 -23 -47 -9 -61 6 -6 11 -21 11 -34 0 -39 14 -25 38 38 23 59 25
83 5 57z"/>
<path d="M1462 196 c-24 -6 -42 -15 -40 -21 1 -5 9 -9 16 -7 10 2 13 -7 10
-39 -2 -26 1 -44 9 -46 8 -3 13 12 15 44 3 41 6 48 26 51 21 3 30 17 15 25 -5
2 -27 -1 -51 -7z"/>
<path d="M1589 180 c-13 -36 -34 -41 -25 -5 8 30 -9 33 -24 4 -9 -16 -8 -24 5
-39 9 -10 15 -26 13 -35 -2 -10 3 -20 10 -22 7 -3 12 3 12 14 0 10 9 36 20 58
23 44 24 55 9 55 -5 0 -15 -13 -20 -30z"/>
<path d="M1766 203 c-3 -3 -6 -15 -6 -25 0 -10 -2 -18 -4 -18 -2 0 -12 -3 -21
-6 -13 -5 -16 -2 -13 14 1 12 -1 22 -7 24 -12 4 -24 -54 -18 -87 6 -27 23 -24
23 5 0 10 7 20 15 24 11 4 15 -2 15 -25 0 -55 25 -26 30 35 5 55 1 73 -14 59z"/>
<path d="M2000 191 c-5 -11 -10 -41 -10 -67 l0 -46 32 6 c34 7 56 22 46 31 -3
3 -18 1 -33 -5 l-27 -10 7 55 c7 58 3 68 -15 36z"/>
<path d="M2175 169 c-5 -29 -10 -38 -16 -28 -5 8 -9 24 -9 37 0 36 -17 25 -24
-15 -9 -55 -7 -83 4 -83 6 0 10 12 11 28 l1 27 10 -27 c5 -16 13 -28 17 -28 7
0 31 88 31 116 0 31 -19 11 -25 -27z"/>
<path d="M765 150 c-4 -27 -4 -54 0 -60 10 -16 40 -12 60 10 14 16 15 20 4 20
-8 0 -20 -5 -27 -12 -15 -15 -26 -4 -19 17 4 8 15 15 26 15 11 0 23 5 26 10 4
6 -5 10 -20 10 -15 0 -24 4 -20 10 3 6 15 10 26 10 10 0 19 5 19 10 0 6 -15
10 -34 10 -33 0 -34 -1 -41 -50z"/>
<path d="M1227 193 c-4 -3 -7 -30 -7 -60 0 -44 3 -53 18 -53 31 0 62 29 62 59
0 41 -50 78 -73 54z m49 -61 c-4 -11 -13 -23 -21 -26 -11 -4 -15 3 -15 28 0
18 3 36 7 40 12 12 35 -21 29 -42z"/>
<path d="M1318 154 c-4 -57 10 -79 44 -71 26 7 38 37 38 93 0 38 -18 28 -25
-13 -9 -53 -13 -63 -25 -63 -5 0 -10 22 -10 50 0 63 -17 66 -22 4z"/>
<path d="M1816 171 c-18 -34 -21 -81 -6 -81 6 0 10 7 10 15 0 8 7 15 15 15 8
0 15 -9 15 -20 0 -11 5 -20 10 -20 7 0 10 22 8 57 -4 69 -27 84 -52 34z"/>
<path d="M1894 187 c-3 -8 -4 -34 -2 -58 2 -36 7 -45 24 -47 33 -5 54 24 54
74 0 24 -4 44 -10 44 -5 0 -10 -17 -10 -37 0 -45 -13 -69 -30 -58 -8 5 -10 21
-7 46 5 39 -8 64 -19 36z"/>
<path d="M2086 169 c-9 -45 -8 -89 3 -89 11 0 22 102 11 113 -4 5 -10 -6 -14
-24z"/>
<path d="M2252 184 c-37 -25 -46 -52 -27 -80 19 -29 55 -32 78 -6 19 20 22 48
8 56 -5 4 -22 1 -38 -6 -27 -11 -27 -12 -5 -16 27 -4 24 -27 -4 -27 -28 0 -30
39 -3 58 12 9 28 13 35 10 8 -3 14 1 14 11 0 20 -29 21 -58 0z"/>
<path d="M1140 120 c0 -5 14 -10 30 -10 17 0 30 5 30 10 0 6 -13 10 -30 10
-16 0 -30 -4 -30 -10z"/>
</g>
</svg>
